<?xml version="1.0" encoding="UTF-8"?>
<svg width="12.999mm" height="2.9956mm" version="1.1" viewBox="0 0 12.999 2.9956" xmlns="http://www.w3.org/2000/svg">
<g transform="translate(-57.22 -64.177)">
<g transform="translate(23.199 6.361)" stroke-width="0">
<path transform="matrix(.26458 0 0 .26458 -.97107 5.012)" d="m150.52 209.61q-0.456 0-0.786-0.102-0.324-0.102-0.54-0.198-0.21-0.102-0.336-0.102-0.132 0-0.228 0.066t-0.186 0.15q-0.09 0.078-0.186 0.144t-0.222 0.066q-0.156 0-0.258-0.096-0.102-0.09-0.138-0.306l-0.378-1.992q-0.024-0.156 0.048-0.264 0.072-0.114 0.228-0.168 0.18-0.06 0.306 6e-3 0.132 0.06 0.234 0.252 0.354 0.69 0.72 1.08 0.372 0.39 0.762 0.552 0.39 0.156 0.798 0.156 0.552 0 0.876-0.27 0.33-0.276 0.33-0.756 0-0.318-0.15-0.564t-0.594-0.48q-0.438-0.234-1.302-0.498-0.924-0.288-1.482-0.672t-0.81-0.918q-0.246-0.54-0.246-1.272 0-0.75 0.36-1.326 0.366-0.582 1.026-0.906 0.666-0.324 1.56-0.324 0.516 0 0.864 0.096t0.582 0.198q0.24 0.102 0.408 0.102 0.144 0 0.234-0.102 0.096-0.108 0.204-0.216t0.294-0.108q0.162 0 0.27 0.108 0.114 0.102 0.198 0.39l0.546 1.962q0.054 0.186-0.012 0.336t-0.234 0.204q-0.18 0.06-0.312-6e-3 -0.132-0.072-0.216-0.24-0.378-0.744-0.81-1.176-0.426-0.432-0.87-0.612-0.444-0.186-0.882-0.186-0.546 0-0.858 0.306-0.306 0.306-0.306 0.792 0 0.3 0.144 0.558 0.144 0.252 0.576 0.51 0.432 0.252 1.272 0.552 0.924 0.33 1.47 0.714 0.552 0.384 0.798 0.882t0.24 1.158q0 0.696-0.36 1.272-0.36 0.57-1.032 0.912-0.666 0.336-1.614 0.336zm4.85-5.238-0.228-0.078q-0.144-0.048-0.21-0.12-0.06-0.078-0.06-0.186 0-0.144 0.102-0.222t0.264-0.078h0.348q0.126 0 0.222-0.054 0.102-0.06 0.234-0.21l0.81-0.954q0.162-0.18 0.306-0.264t0.282-0.084q0.15 0 0.234 0.102 0.084 0.096 0.084 0.276v4.974q0 0.426 0.156 0.654 0.162 0.222 0.45 0.222 0.222 0 0.342-0.102 0.126-0.102 0.198-0.228 0.078-0.132 0.15-0.234 0.078-0.102 0.21-0.102 0.102 0 0.162 0.072 0.066 0.072 0.066 0.246 0 0.426-0.258 0.786-0.258 0.354-0.714 0.57-0.45 0.21-1.032 0.21-0.876 0-1.362-0.426-0.486-0.432-0.486-1.296v-3.096q0-0.168-0.066-0.246-0.06-0.078-0.204-0.132zm1.614 0.042v-0.726h2.094q0.162 0 0.258 0.072 0.096 0.066 0.096 0.198 0 0.192-0.192 0.324-0.186 0.132-0.618 0.132zm7.1-0.888q0.972 0 1.704 0.384 0.738 0.384 1.146 1.074 0.408 0.684 0.408 1.59 0 0.846-0.426 1.53t-1.176 1.08q-0.744 0.396-1.734 0.396-0.972 0-1.71-0.384-0.732-0.39-1.14-1.074-0.408-0.69-0.408-1.584 0-0.87 0.426-1.548t1.17-1.068q0.75-0.396 1.74-0.396zm0.432 5.304q0.318-0.06 0.504-0.348 0.186-0.294 0.21-0.816 0.03-0.528-0.126-1.302-0.15-0.756-0.378-1.236-0.228-0.486-0.522-0.696-0.294-0.216-0.63-0.15-0.318 0.06-0.504 0.348t-0.21 0.816q-0.024 0.522 0.126 1.302 0.15 0.75 0.378 1.236 0.234 0.486 0.522 0.696 0.294 0.21 0.63 0.15zm6.794-2.634q0-0.9 0.246-1.494t0.642-0.882q0.402-0.294 0.87-0.294 0.606 0 0.93 0.354 0.33 0.354 0.33 1.044 0 0.66-0.27 0.978-0.264 0.318-0.696 0.318t-0.654-0.222q-0.222-0.228-0.222-0.63v-0.24q-6e-3 -0.168-0.084-0.252-0.072-0.09-0.234-0.09t-0.306 0.138-0.234 0.432-0.09 0.774zm0.096-2.19 0.132 1.302v2.994q0 0.192 0.06 0.276 0.066 0.084 0.27 0.12l0.48 0.09q0.162 0.03 0.24 0.108t0.078 0.216q0 0.15-0.102 0.234-0.102 0.078-0.3 0.078h-3.06q-0.21 0-0.306-0.078-0.09-0.084-0.09-0.228 0-0.108 0.054-0.186 0.06-0.078 0.186-0.126l0.186-0.06q0.096-0.042 0.138-0.132 0.048-0.096 0.048-0.306v-3.102q0-0.174-0.048-0.246-0.048-0.078-0.156-0.102l-0.222-0.03q-0.12-0.036-0.174-0.102-0.048-0.066-0.048-0.168 0-0.126 0.072-0.198 0.072-0.078 0.252-0.144l1.188-0.45q0.36-0.144 0.522-0.186 0.168-0.042 0.258-0.042 0.15 0 0.228 0.108t0.114 0.36zm9.98 1.812q0 0.378-0.21 0.582-0.204 0.198-0.594 0.198h-3.654v-0.546h2.034q0.318 0 0.318-0.294 0-0.768-0.234-1.134-0.228-0.366-0.618-0.366-0.288 0-0.516 0.192-0.228 0.186-0.36 0.564-0.132 0.372-0.132 0.912 0 1.128 0.516 1.674 0.522 0.54 1.398 0.54 0.462 0 0.822-0.15 0.366-0.15 0.63-0.48 0.144-0.138 0.222-0.186t0.156-0.048q0.108 0 0.156 0.108 0.048 0.102 0.048 0.246-0.012 0.522-0.36 0.972-0.348 0.444-0.96 0.714-0.606 0.264-1.41 0.264-0.894 0-1.596-0.36t-1.11-1.008q-0.402-0.648-0.402-1.512 0-0.948 0.378-1.662t1.092-1.11q0.714-0.402 1.716-0.402 0.864 0 1.458 0.294 0.6 0.294 0.906 0.816 0.306 0.516 0.306 1.182z" fill="#240035" fill-opacity=".9967" style="white-space:pre" aria-label="Store"/>
<path d="m34.021 57.816h2.9956v2.9956h-2.9956z" fill="#50f" fill-opacity=".9967"/>
<path transform="scale(1.002 .99803)" d="m34.818 59.52t0.07326-0.02772q0.07325-0.02772 0.19205-0.07127 0.12077-0.04554 0.25738-0.09701 0.13859-0.05148 0.26926-0.10097 0.13265-0.05148 0.23165-0.0891l-0.04554 0.06336q0.01584-0.0495 0.02376-0.11087 0.0079-0.06138 0.0099-0.14453 0-0.13265-0.05742-0.21779-0.05742-0.08712-0.15245-0.08712-0.09305 0-0.19403 0.07128-0.09899 0.0693-0.18611 0.19403-0.08711 0.12473-0.14651 0.29104-0.0594 0.16631-0.07326 0.35836-0.0198 0.29104 0.09107 0.43755 0.11087 0.14453 0.3148 0.14453 0.12275 0 0.23759-0.04554 0.11483-0.04752 0.20591-0.13661 0.09305-0.0891 0.14255-0.21581 0.0297-0.04356 0.05148-0.0594 0.02376-0.01584 0.0495-0.01584 0.03366 2e-3 0.05148 0.0297 0.0198 0.02574 4e-3 0.08711-0.02772 0.15245-0.14255 0.29104-0.11483 0.13661-0.31084 0.22373-0.19403 0.08712-0.46329 0.08712-0.22967 0-0.38014-0.08514-0.15047-0.08712-0.21779-0.2455-0.06732-0.16037-0.05346-0.38212 0.01584-0.23759 0.10889-0.45141 0.09503-0.21383 0.24748-0.37816 0.15443-0.16433 0.34648-0.25936 0.19403-0.09503 0.40588-0.09503 0.15641 0 0.26134 0.06138 0.10691 0.06138 0.16235 0.16433 0.05544 0.10295 0.06534 0.22967 2e-3 0.0297 0.01584 0.0495 0.01584 0.0198 0.0396 0.0198 0.0297-2e-3 0.04356 0.01188 0.01386 0.01188 0.01386 0.03762 0 0.0297-0.02772 0.05742-0.02574 0.02574-0.10097 0.05346-0.08118 0.02772-0.21185 0.07524-0.12869 0.04554-0.28114 0.10097-0.15047 0.05544-0.30292 0.11087-0.15047 0.05346-0.2752 0.09899-0.12473 0.04356-0.20195 0.07127-0.07524 0.02772-0.07524 0.02772z" fill="#f9f9f9" aria-label="e"/>
</g>
</g>
</svg>
