<?xml version="1.0" encoding="UTF-8"?>
<svg width="12.999mm" height="2.9956mm" version="1.1" viewBox="0 0 12.999 2.9956" xmlns="http://www.w3.org/2000/svg">
<g transform="translate(-59.932 -75.07)">
<g transform="translate(23.199 6.361)">
<g stroke-width="0">
<path d="m41.565 71.364q-0.12065 0-0.20796-0.02699-0.08573-0.02699-0.14288-0.05239-0.05556-0.02699-0.0889-0.02699-0.03493 0-0.06033 0.01746t-0.04921 0.03969q-0.02381 0.02064-0.04921 0.0381t-0.05874 0.01746q-0.04127 0-0.06826-0.0254-0.02699-0.02381-0.03651-0.08096l-0.10001-0.52705q-0.0063-0.04127 0.0127-0.06985 0.01905-0.03016 0.06032-0.04445 0.04763-0.01587 0.08096 0.0016 0.03493 0.01588 0.06191 0.06667 0.09366 0.18256 0.1905 0.28575 0.09842 0.10319 0.20161 0.14605 0.10319 0.04127 0.21114 0.04127 0.14605 0 0.23178-0.07144 0.08731-0.07303 0.08731-0.20002 0-0.08414-0.03969-0.14922-0.03969-0.06509-0.15716-0.127-0.11589-0.06191-0.34449-0.13176-0.24448-0.0762-0.39211-0.1778-0.14764-0.1016-0.21431-0.24289-0.06509-0.14288-0.06509-0.33655 0-0.19844 0.09525-0.35084 0.09684-0.15399 0.27146-0.23971 0.17621-0.08573 0.41275-0.08573 0.13652 0 0.2286 0.0254 0.09208 0.0254 0.15399 0.05239 0.0635 0.02699 0.10795 0.02699 0.0381 0 0.06191-0.02699 0.0254-0.02857 0.05398-0.05715 0.02858-0.02857 0.07779-0.02857 0.04286 0 0.07144 0.02857 0.03016 0.02699 0.05239 0.10319l0.14446 0.51911q0.01429 0.04921-0.0032 0.0889-0.01746 0.03969-0.06191 0.05397-0.04763 0.01588-0.08255-0.0016-0.03492-0.01905-0.05715-0.0635-0.10001-0.19685-0.21431-0.31115-0.11271-0.1143-0.23019-0.16192-0.11748-0.04921-0.23336-0.04921-0.14446 0-0.22701 0.08096-0.08096 0.08096-0.08096 0.20955 0 0.07937 0.0381 0.14764 0.0381 0.06667 0.1524 0.13494 0.1143 0.06667 0.33655 0.14605 0.24448 0.08731 0.38894 0.18891 0.14605 0.1016 0.21114 0.23336 0.06509 0.13176 0.0635 0.30639 0 0.18415-0.09525 0.33655-0.09525 0.15081-0.27305 0.2413-0.17621 0.0889-0.42704 0.0889zm1.2832-1.3859-0.06032-0.02064q-0.0381-0.0127-0.05556-0.03175-0.01588-0.02064-0.01588-0.04921 0-0.0381 0.02699-0.05874t0.06985-0.02064h0.09208q0.03334 0 0.05874-0.01429 0.02699-0.01588 0.06191-0.05556l0.21431-0.25241q0.04286-0.04762 0.08096-0.06985 0.0381-0.02222 0.07461-0.02222 0.03969 0 0.06191 0.02699 0.02222 0.0254 0.02222 0.07303v1.316q0 0.11271 0.04127 0.17304 0.04286 0.05874 0.11906 0.05874 0.05874 0 0.09049-0.02699 0.03334-0.02699 0.05239-0.06032 0.02064-0.03493 0.03969-0.06191 0.02064-0.02699 0.05556-0.02699 0.02699 0 0.04286 0.01905 0.01746 0.01905 0.01746 0.06509 0 0.11271-0.06826 0.20796-0.06826 0.09366-0.18891 0.15081-0.11906 0.05556-0.27305 0.05556-0.23178 0-0.36036-0.11271-0.12859-0.1143-0.12859-0.3429v-0.81915q0-0.04445-0.01746-0.06509-0.01588-0.02064-0.05398-0.03492zm0.42704 0.01111v-0.19209h0.55404q0.04286 0 0.06826 0.01905 0.0254 0.01746 0.0254 0.05239 0 0.0508-0.0508 0.08573-0.04921 0.03492-0.16351 0.03492zm1.8785-0.23495q0.25718 0 0.45085 0.1016 0.19526 0.1016 0.30321 0.28416 0.10795 0.18098 0.10795 0.42069 0 0.22384-0.11271 0.40481-0.11271 0.18098-0.31115 0.28575-0.19685 0.10478-0.45879 0.10478-0.25718 0-0.45244-0.1016-0.19368-0.10319-0.30162-0.28416-0.10795-0.18256-0.10795-0.4191 0-0.23019 0.11271-0.40958 0.11271-0.17939 0.30956-0.28258 0.19844-0.10478 0.46038-0.10478zm0.1143 1.4034q0.08414-0.01588 0.13335-0.09208 0.04921-0.07779 0.05556-0.2159 0.0079-0.1397-0.03334-0.34449-0.03969-0.20002-0.10001-0.32702-0.06032-0.12859-0.13811-0.18415-0.07779-0.05715-0.16669-0.03969-0.08414 0.01587-0.13335 0.09207t-0.05556 0.2159q-0.0064 0.13811 0.03334 0.34449 0.03969 0.19844 0.10001 0.32702 0.06191 0.12859 0.13811 0.18415 0.07779 0.05556 0.16669 0.03969zm1.7976-0.69691q0-0.23812 0.06509-0.39529 0.06509-0.15716 0.16986-0.23336 0.10636-0.07779 0.23019-0.07779 0.16034 0 0.24606 0.09366 0.08731 0.09366 0.08731 0.27622 0 0.17462-0.07144 0.25876-0.06985 0.08414-0.18415 0.08414t-0.17304-0.05874q-0.05874-0.06032-0.05874-0.16669v-0.0635q-0.0016-0.04445-0.02222-0.06667-0.01905-0.02381-0.06191-0.02381t-0.08096 0.03651-0.06191 0.1143-0.02381 0.20479zm0.0254-0.57944 0.03493 0.34449v0.79216q0 0.0508 0.01588 0.07303 0.01746 0.02222 0.07144 0.03175l0.127 0.02381q0.04286 0.0079 0.0635 0.02857 0.02064 0.02064 0.02064 0.05715 0 0.03969-0.02699 0.06191-0.02699 0.02064-0.07937 0.02064h-0.80962q-0.05556 0-0.08096-0.02064-0.02381-0.02222-0.02381-0.06032 0-0.02858 0.01429-0.04921 0.01588-0.02064 0.04921-0.03334l0.04921-0.01588q0.0254-0.01111 0.03651-0.03492 0.0127-0.0254 0.0127-0.08096v-0.82074q0-0.04604-0.0127-0.06509-0.0127-0.02064-0.04127-0.02699l-0.05874-0.0079q-0.03175-0.0095-0.04604-0.02699-0.0127-0.01746-0.0127-0.04445 0-0.03334 0.01905-0.05239 0.01905-0.02064 0.06667-0.0381l0.31432-0.11906q0.09525-0.0381 0.13811-0.04921 0.04445-0.01111 0.06826-0.01111 0.03969 0 0.06032 0.02858 0.02064 0.02857 0.03016 0.09525zm2.6405 0.47942q0 0.10001-0.05556 0.15399-0.05398 0.05239-0.15716 0.05239h-0.96679v-0.14446h0.53816q0.08414 0 0.08414-0.07779 0-0.2032-0.06191-0.30004-0.06032-0.09684-0.16351-0.09684-0.0762 0-0.13652 0.0508-0.06032 0.04921-0.09525 0.14922-0.03493 0.09842-0.03493 0.2413 0 0.29845 0.13652 0.44291 0.13811 0.14288 0.36989 0.14288 0.12224 0 0.21749-0.03969 0.09684-0.03969 0.16669-0.127 0.0381-0.03651 0.05874-0.04921t0.04127-0.0127q0.02858 0 0.04128 0.02857 0.0127 0.02699 0.0127 0.06509-0.0032 0.13811-0.09525 0.25718-0.09208 0.11748-0.254 0.18891-0.16034 0.06985-0.37306 0.06985-0.23654 0-0.42228-0.09525-0.18574-0.09525-0.29369-0.2667-0.10636-0.17145-0.10636-0.40005 0-0.25082 0.10001-0.43974 0.10001-0.18891 0.28892-0.29369 0.18891-0.10636 0.45402-0.10636 0.2286 0 0.38576 0.07779 0.15875 0.07779 0.23971 0.2159 0.08096 0.13652 0.08096 0.31274z" fill="#ccc" fill-opacity=".9967" style="white-space:pre" aria-label="Store"/>
<path d="m36.733 68.709h2.9956v2.9956h-2.9956z" fill="#ccc" fill-opacity=".9967"/>
<path d="m37.598 70.296t0.07341-0.02766q0.07339-0.02767 0.19243-0.07113 0.12101-0.04545 0.25789-0.09682 0.13886-0.05138 0.2698-0.10078 0.13291-0.05138 0.2321-0.08892l-0.04563 0.06323q0.01587-0.0494 0.02381-0.11065 0.0079-0.06126 0.0099-0.14425 0-0.13239-0.05753-0.21736-0.05753-0.08695-0.15275-0.08695-0.09323 0-0.19441 0.07114-0.09919 0.06916-0.18648 0.19365-0.08728 0.12449-0.1468 0.29047t-0.07341 0.35765q-0.01984 0.29047 0.09125 0.43669 0.11109 0.14425 0.31542 0.14425 0.123 0 0.23806-0.04545 0.11506-0.04743 0.20631-0.13634 0.09323-0.08892 0.14283-0.21538 0.02976-0.04347 0.05158-0.05928 0.02381-0.01581 0.0496-0.01581 0.03373 2e-3 0.05158 0.02964 0.01984 0.02569 4e-3 0.08694-0.02777 0.15215-0.14283 0.29047-0.11506 0.13634-0.31146 0.22328-0.19441 0.08695-0.46421 0.08695-0.23012 0-0.38089-0.08497-0.15077-0.08695-0.21822-0.24502-0.06745-0.16006-0.05357-0.38136 0.01587-0.23712 0.10911-0.45052 0.09522-0.2134 0.24797-0.37741 0.15474-0.16401 0.34716-0.25885 0.19441-0.09484 0.40668-0.09484 0.15672 0 0.26186 0.06126 0.10712 0.06126 0.16267 0.16401 0.05555 0.10275 0.06547 0.22921 2e-3 0.02964 0.01587 0.0494 0.01587 0.01976 0.03968 0.01976 0.02976-2e-3 0.04365 0.01186 0.01389 0.01186 0.01389 0.03755 0 0.02964-0.02777 0.05731-0.02579 0.02569-0.10117 0.05335-0.08134 0.02766-0.21227 0.07509-0.12895 0.04545-0.2817 0.10077-0.15077 0.05533-0.30352 0.11066-0.15077 0.05335-0.27575 0.0988-0.12498 0.04347-0.20235 0.07113-0.07539 0.02766-0.07539 0.02766z" fill="#fff" aria-label="e"/>
</g>
</g>
</g>
</svg>
