<?xml version="1.0" encoding="UTF-8"?>
<svg width="12.999mm" height="2.9956mm" version="1.1" viewBox="0 0 12.999 2.9956" xmlns="http://www.w3.org/2000/svg">
<g transform="translate(-59.932 -69.865)">
<g transform="translate(23.199 6.361)" stroke-width="0">
<path d="m41.565 66.16q-0.12065 0-0.20796-0.02699-0.08573-0.02699-0.14288-0.05239-0.05556-0.02699-0.0889-0.02699-0.03493 0-0.06033 0.01746t-0.04921 0.03969q-0.02381 0.02064-0.04921 0.0381t-0.05874 0.01746q-0.04127 0-0.06826-0.0254-0.02699-0.02381-0.03651-0.08096l-0.10001-0.52705q-0.0063-0.04127 0.0127-0.06985 0.01905-0.03016 0.06032-0.04445 0.04763-0.01587 0.08096 0.0016 0.03493 0.01588 0.06191 0.06667 0.09366 0.18256 0.1905 0.28575 0.09842 0.10319 0.20161 0.14605 0.10319 0.04127 0.21114 0.04127 0.14605 0 0.23178-0.07144 0.08731-0.07303 0.08731-0.20002 0-0.08414-0.03969-0.14922-0.03969-0.06509-0.15716-0.127-0.11589-0.06191-0.34449-0.13176-0.24448-0.0762-0.39211-0.1778-0.14764-0.1016-0.21431-0.24289-0.06509-0.14288-0.06509-0.33655 0-0.19844 0.09525-0.35084 0.09684-0.15399 0.27146-0.23971 0.17621-0.08573 0.41275-0.08573 0.13652 0 0.2286 0.0254 0.09208 0.0254 0.15399 0.05239 0.0635 0.02699 0.10795 0.02699 0.0381 0 0.06191-0.02699 0.0254-0.02857 0.05398-0.05715 0.02858-0.02857 0.07779-0.02857 0.04286 0 0.07144 0.02857 0.03016 0.02699 0.05239 0.10319l0.14446 0.51911q0.01429 0.04921-0.0032 0.0889-0.01746 0.03969-0.06191 0.05397-0.04763 0.01588-0.08255-0.0016-0.03492-0.01905-0.05715-0.0635-0.10001-0.19685-0.21431-0.31115-0.11271-0.1143-0.23019-0.16192-0.11748-0.04921-0.23336-0.04921-0.14446 0-0.22701 0.08096-0.08096 0.08096-0.08096 0.20955 0 0.07937 0.0381 0.14764 0.0381 0.06667 0.1524 0.13494 0.1143 0.06667 0.33655 0.14605 0.24448 0.08731 0.38894 0.18891 0.14605 0.1016 0.21114 0.23336 0.06509 0.13176 0.0635 0.30639 0 0.18415-0.09525 0.33655-0.09525 0.15081-0.27305 0.2413-0.17621 0.0889-0.42704 0.0889zm1.2832-1.3859-0.06032-0.02064q-0.0381-0.0127-0.05556-0.03175-0.01588-0.02064-0.01588-0.04921 0-0.0381 0.02699-0.05874t0.06985-0.02064h0.09208q0.03334 0 0.05874-0.01429 0.02699-0.01588 0.06191-0.05556l0.21431-0.25241q0.04286-0.04762 0.08096-0.06985 0.0381-0.02222 0.07461-0.02222 0.03969 0 0.06191 0.02699 0.02222 0.0254 0.02222 0.07303v1.316q0 0.11271 0.04127 0.17304 0.04286 0.05874 0.11906 0.05874 0.05874 0 0.09049-0.02699 0.03334-0.02699 0.05239-0.06032 0.02064-0.03493 0.03969-0.06191 0.02064-0.02699 0.05556-0.02699 0.02699 0 0.04286 0.01905 0.01746 0.01905 0.01746 0.06509 0 0.11271-0.06826 0.20796-0.06826 0.09366-0.18891 0.15081-0.11906 0.05556-0.27305 0.05556-0.23178 0-0.36036-0.11271-0.12859-0.1143-0.12859-0.3429v-0.81915q0-0.04445-0.01746-0.06509-0.01588-0.02064-0.05398-0.03492zm0.42704 0.01111v-0.19209h0.55404q0.04286 0 0.06826 0.01905 0.0254 0.01746 0.0254 0.05239 0 0.0508-0.0508 0.08573-0.04921 0.03492-0.16351 0.03492zm1.8785-0.23495q0.25718 0 0.45085 0.1016 0.19526 0.1016 0.30321 0.28416 0.10795 0.18098 0.10795 0.42069 0 0.22384-0.11271 0.40481-0.11271 0.18098-0.31115 0.28575-0.19685 0.10478-0.45879 0.10478-0.25718 0-0.45244-0.1016-0.19368-0.10319-0.30162-0.28416-0.10795-0.18256-0.10795-0.4191 0-0.23019 0.11271-0.40958 0.11271-0.17939 0.30956-0.28258 0.19844-0.10478 0.46038-0.10478zm0.1143 1.4034q0.08414-0.01588 0.13335-0.09208 0.04921-0.07779 0.05556-0.2159 0.0079-0.1397-0.03334-0.34449-0.03969-0.20002-0.10001-0.32702-0.06032-0.12859-0.13811-0.18415-0.07779-0.05715-0.16669-0.03969-0.08414 0.01587-0.13335 0.09207t-0.05556 0.2159q-0.0064 0.13811 0.03334 0.34449 0.03969 0.19844 0.10001 0.32702 0.06191 0.12859 0.13811 0.18415 0.07779 0.05556 0.16669 0.03969zm1.7976-0.69691q0-0.23812 0.06509-0.39529 0.06509-0.15716 0.16986-0.23336 0.10636-0.07779 0.23019-0.07779 0.16034 0 0.24606 0.09366 0.08731 0.09366 0.08731 0.27622 0 0.17462-0.07144 0.25876-0.06985 0.08414-0.18415 0.08414t-0.17304-0.05874q-0.05874-0.06032-0.05874-0.16669v-0.0635q-0.0016-0.04445-0.02222-0.06667-0.01905-0.02381-0.06191-0.02381t-0.08096 0.03651-0.06191 0.1143-0.02381 0.20479zm0.0254-0.57944 0.03493 0.34449v0.79216q0 0.0508 0.01588 0.07303 0.01746 0.02222 0.07144 0.03175l0.127 0.02381q0.04286 0.0079 0.0635 0.02857 0.02064 0.02064 0.02064 0.05715 0 0.03969-0.02699 0.06191-0.02699 0.02064-0.07937 0.02064h-0.80962q-0.05556 0-0.08096-0.02064-0.02381-0.02222-0.02381-0.06032 0-0.02858 0.01429-0.04921 0.01588-0.02064 0.04921-0.03334l0.04921-0.01588q0.0254-0.01111 0.03651-0.03492 0.0127-0.0254 0.0127-0.08096v-0.82074q0-0.04604-0.0127-0.06509-0.0127-0.02064-0.04127-0.02699l-0.05874-0.0079q-0.03175-0.0095-0.04604-0.02699-0.0127-0.01746-0.0127-0.04445 0-0.03334 0.01905-0.05239 0.01905-0.02064 0.06667-0.0381l0.31432-0.11906q0.09525-0.0381 0.13811-0.04921 0.04445-0.01111 0.06826-0.01111 0.03969 0 0.06032 0.02858 0.02064 0.02857 0.03016 0.09525zm2.6405 0.47942q0 0.10001-0.05556 0.15399-0.05398 0.05239-0.15716 0.05239h-0.96679v-0.14446h0.53816q0.08414 0 0.08414-0.07779 0-0.2032-0.06191-0.30004-0.06032-0.09684-0.16351-0.09684-0.0762 0-0.13652 0.0508-0.06032 0.04921-0.09525 0.14922-0.03493 0.09842-0.03493 0.2413 0 0.29845 0.13652 0.44291 0.13811 0.14288 0.36989 0.14288 0.12224 0 0.21749-0.03969 0.09684-0.03969 0.16669-0.127 0.0381-0.03651 0.05874-0.04921t0.04127-0.0127q0.02858 0 0.04128 0.02857 0.0127 0.02699 0.0127 0.06509-0.0032 0.13811-0.09525 0.25718-0.09208 0.11748-0.254 0.18891-0.16034 0.06985-0.37306 0.06985-0.23654 0-0.42228-0.09525-0.18574-0.09525-0.29369-0.2667-0.10636-0.17145-0.10636-0.40005 0-0.25082 0.10001-0.43974 0.10001-0.18891 0.28892-0.29369 0.18891-0.10636 0.45402-0.10636 0.2286 0 0.38576 0.07779 0.15875 0.07779 0.23971 0.2159 0.08096 0.13652 0.08096 0.31274z" fill="#f9f9f9" fill-opacity=".9967" style="white-space:pre" aria-label="Store"/>
<path d="m36.733 63.504h2.9956v2.9956h-2.9956z" fill="#f9f9f9" fill-opacity=".9967"/>
<path d="m37.523 65.113t0.08076-0.03043q0.08074-0.03044 0.2117-0.07825 0.13313-0.05 0.28372-0.10652 0.15277-0.05653 0.29681-0.11087 0.14622-0.05653 0.25535-0.09783l-0.0502 0.06956q0.01746-0.05434 0.02619-0.12174 0.0086-0.0674 0.01089-0.15869 0-0.14565-0.0633-0.23912-0.06329-0.09566-0.16805-0.09566-0.10256 0-0.21388 0.07826-0.10912 0.07609-0.20515 0.21304-0.09602 0.13695-0.1615 0.31956-0.06548 0.1826-0.08076 0.39346-0.02183 0.31956 0.10039 0.48042 0.12222 0.15869 0.34701 0.15869 0.13531 0 0.26189-0.05 0.12658-0.05218 0.22697-0.15 0.10256-0.09783 0.15714-0.23695 0.03274-0.04783 0.05675-0.06522 0.02619-0.01739 0.05457-0.01739 0.03711 0.0022 0.05675 0.0326 0.02183 0.02826 0.0044 0.09565-0.03055 0.16739-0.15713 0.31956-0.12658 0.14999-0.34264 0.24564-0.21388 0.09566-0.51069 0.09566-0.25316 0-0.41903-0.09347-0.16587-0.09566-0.24007-0.26956-0.0742-0.17608-0.05893-0.41955 0.01746-0.26086 0.12003-0.49564 0.10476-0.23478 0.27281-0.4152 0.17023-0.18043 0.38193-0.28477 0.21388-0.10434 0.4474-0.10434 0.17241 0 0.28808 0.0674 0.11785 0.0674 0.17896 0.18043 0.06111 0.11304 0.07203 0.25216 0.0022 0.03261 0.01746 0.05434 0.01746 0.02174 0.04365 0.02174 0.03274-0.0022 0.04802 0.01304 0.01528 0.01304 0.01528 0.04131 0 0.0326-0.03055 0.06304-0.02837 0.02826-0.1113 0.05869-0.08949 0.03043-0.23352 0.0826-0.14186 0.05-0.30991 0.11086-0.16586 0.06087-0.33391 0.12174-0.16587 0.05869-0.30336 0.10869-0.13749 0.04783-0.22261 0.07825-0.08294 0.03043-0.08294 0.03043z" fill="#50f" aria-label="e"/>
</g>
</g>
</svg>
